<?xml version="1.0" encoding="UTF-8"?>
<svg xmlns="http://www.w3.org/2000/svg" xmlns:xlink="http://www.w3.org/1999/xlink" width="32px" height="32px" viewBox="0 0 32 32" version="1.1">
<g id="surface1">
<path style=" stroke:none;fill-rule:nonzero;fill:rgb(100%,40%,38.823529%);fill-opacity:1;" d="M 3.5 10.730469 L 8.898438 10.730469 L 8.898438 27.871094 L 3.5 27.871094 Z M 10.320312 4.128906 L 10.320312 27.871094 L 21.679688 27.871094 L 21.679688 4.128906 Z M 23.101562 10.730469 L 28.5 10.730469 L 28.5 27.871094 L 23.101562 27.871094 Z M 23.101562 10.730469 "/>
<path style=" stroke:none;fill-rule:nonzero;fill:rgb(32.941176%,17.254902%,17.254902%);fill-opacity:1;" d="M 30.75 26.300781 L 30.75 29.371094 C 30.75 29.785156 30.414062 30.121094 30 30.121094 L 2 30.121094 C 1.585938 30.121094 1.25 29.785156 1.25 29.371094 L 1.25 9.230469 C 1.25 8.816406 1.585938 8.480469 2 8.480469 L 8.070312 8.480469 L 8.070312 6.839844 C 8.070312 6.425781 8.40625 6.089844 8.820312 6.089844 C 9.234375 6.089844 9.570312 6.425781 9.570312 6.839844 L 9.570312 28.621094 L 12.578125 28.621094 L 12.578125 22.488281 C 12.578125 22.074219 12.914062 21.738281 13.328125 21.738281 L 18.671875 21.738281 C 19.085938 21.738281 19.421875 22.074219 19.421875 22.488281 L 19.421875 28.621094 L 22.429688 28.621094 L 22.429688 21.5 C 22.429688 21.085938 22.765625 20.75 23.179688 20.75 C 23.59375 20.75 23.929688 21.085938 23.929688 21.5 L 23.929688 28.621094 L 29.25 28.621094 L 29.25 26.300781 Z M 17.921875 28.621094 L 17.921875 23.238281 L 14.078125 23.238281 L 14.078125 28.621094 Z M 8.070312 28.621094 L 8.070312 9.980469 L 2.75 9.980469 L 2.75 11.058594 L 6.238281 11.058594 C 6.65625 11.058594 6.988281 11.394531 6.988281 11.808594 L 6.988281 14.390625 C 6.988281 14.804688 6.65625 15.140625 6.238281 15.140625 L 2.75 15.140625 L 2.75 16.640625 L 6.238281 16.640625 C 6.65625 16.640625 6.988281 16.976562 6.988281 17.390625 L 6.988281 19.96875 C 6.988281 20.386719 6.65625 20.71875 6.238281 20.71875 L 2.75 20.71875 L 2.75 22.21875 L 6.238281 22.21875 C 6.65625 22.21875 6.988281 22.554688 6.988281 22.96875 L 6.988281 25.550781 C 6.988281 25.964844 6.65625 26.300781 6.238281 26.300781 L 2.75 26.300781 L 2.75 28.621094 Z M 5.488281 24.800781 L 5.488281 23.71875 L 2.839844 23.71875 L 2.839844 24.800781 Z M 5.488281 19.21875 L 5.488281 18.140625 L 2.839844 18.140625 L 2.839844 19.21875 Z M 5.488281 13.640625 L 5.488281 12.558594 L 2.839844 12.558594 L 2.839844 13.640625 Z M 5.488281 13.640625 "/>
<path style=" stroke:none;fill-rule:nonzero;fill:rgb(32.941176%,17.254902%,17.254902%);fill-opacity:1;" d="M 30.75 9.230469 L 30.75 26.300781 L 25.851562 26.300781 C 25.433594 26.300781 25.101562 25.964844 25.101562 25.550781 L 25.101562 22.96875 C 25.101562 22.554688 25.433594 22.21875 25.851562 22.21875 L 29.25 22.21875 L 29.25 20.71875 L 25.851562 20.71875 C 25.433594 20.71875 25.101562 20.386719 25.101562 19.96875 L 25.101562 17.390625 C 25.101562 16.976562 25.433594 16.640625 25.851562 16.640625 L 29.25 16.640625 L 29.25 15.140625 L 25.851562 15.140625 C 25.433594 15.140625 25.101562 14.804688 25.101562 14.390625 L 25.101562 11.808594 C 25.101562 11.394531 25.433594 11.058594 25.851562 11.058594 L 29.25 11.058594 L 29.25 9.980469 L 23.929688 9.980469 L 23.929688 13.101562 C 23.929688 13.515625 23.59375 13.851562 23.179688 13.851562 C 22.765625 13.851562 22.429688 13.515625 22.429688 13.101562 L 22.429688 3.378906 L 9.570312 3.378906 L 9.570312 4.570312 C 9.570312 4.984375 9.234375 5.320312 8.820312 5.320312 C 8.40625 5.320312 8.070312 4.984375 8.070312 4.570312 L 8.070312 2.628906 C 8.070312 2.214844 8.40625 1.878906 8.820312 1.878906 L 23.179688 1.878906 C 23.59375 1.878906 23.929688 2.214844 23.929688 2.628906 L 23.929688 8.480469 L 30 8.480469 C 30.414062 8.480469 30.75 8.816406 30.75 9.230469 Z M 29.25 24.800781 L 29.25 23.71875 L 26.601562 23.71875 L 26.601562 24.800781 Z M 29.25 19.21875 L 29.25 18.140625 L 26.601562 18.140625 L 26.601562 19.21875 Z M 29.25 13.640625 L 29.25 12.558594 L 26.601562 12.558594 L 26.601562 13.640625 Z M 29.25 13.640625 "/>
<path style=" stroke:none;fill-rule:nonzero;fill:rgb(32.941176%,17.254902%,17.254902%);fill-opacity:1;" d="M 26.75 4.570312 L 26.75 6.839844 C 26.75 7.253906 26.414062 7.589844 26 7.589844 C 25.585938 7.589844 25.25 7.253906 25.25 6.839844 L 25.25 4.570312 C 25.25 4.15625 25.585938 3.820312 26 3.820312 C 26.414062 3.820312 26.75 4.15625 26.75 4.570312 Z M 26.75 2 L 26.75 2.40625 C 26.75 2.820312 26.414062 3.15625 26 3.15625 C 25.585938 3.15625 25.25 2.820312 25.25 2.40625 L 25.25 2 C 25.25 1.585938 25.585938 1.25 26 1.25 C 26.414062 1.25 26.75 1.585938 26.75 2 Z M 23.929688 17.058594 L 23.929688 17.820312 C 23.929688 18.125 23.75 18.398438 23.46875 18.515625 C 23.1875 18.628906 22.863281 18.566406 22.648438 18.351562 C 22.515625 18.214844 22.429688 18.03125 22.429688 17.820312 L 22.429688 17.058594 C 22.429688 16.644531 22.765625 16.308594 23.179688 16.308594 C 23.59375 16.308594 23.929688 16.644531 23.929688 17.058594 Z M 21.703125 18.40625 C 21.921875 18.617188 21.984375 18.941406 21.867188 19.222656 C 21.753906 19.503906 21.480469 19.6875 21.175781 19.683594 L 10.824219 19.683594 C 10.410156 19.683594 10.074219 19.351562 10.074219 18.933594 C 10.074219 18.519531 10.410156 18.183594 10.824219 18.183594 L 21.175781 18.183594 C 21.378906 18.183594 21.570312 18.269531 21.703125 18.40625 Z M 19.105469 8.480469 C 19.519531 8.480469 19.855469 8.816406 19.855469 9.230469 C 19.855469 9.644531 19.519531 9.980469 19.105469 9.980469 L 16.75 9.980469 L 16.75 12.335938 C 16.75 12.75 16.414062 13.085938 16 13.085938 C 15.585938 13.085938 15.25 12.75 15.25 12.335938 L 15.25 9.980469 L 12.894531 9.980469 C 12.480469 9.980469 12.144531 9.644531 12.144531 9.230469 C 12.144531 8.816406 12.480469 8.480469 12.894531 8.480469 L 15.25 8.480469 L 15.25 6.125 C 15.25 5.710938 15.585938 5.375 16 5.375 C 16.414062 5.375 16.75 5.710938 16.75 6.125 L 16.75 8.480469 Z M 19.105469 8.480469 "/>
</g>
</svg>
